<?xml version="1.0" encoding="UTF-8" standalone="no"?>
<svg version="1.1" id="Layer_1" x="0px" y="0px" viewBox="0 0 1535.5566 1693.9089" enable-background="new 0 0 1535.5566 1693.9089" xml:space="preserve" xmlns="http://www.w3.org/2000/svg" xmlns:svg="http://www.w3.org/2000/svg"><defs id="defs7">
	
<clipPath clipPathUnits="userSpaceOnUse" id="clipPath828"><path id="path830" d="m 555.2699,1646.9545 c 260.7216,0 521.4429,0 781.6719,0 -32.8428,-154.3505 -72.1501,-408.2728 -55.2302,-470.5089 27.8672,-105.5531 117.9214,-185.21609 151.761,-269.85789 172.1553,-430.1788 -38.2014,-804.6875 -513.9825,-854.3834 -420.1136,-43.8813 -653.7932,194.6746 -686.6362,441.1318 -3.4811,26.3881 0,52.7762 12.4423,80.1613 -57.7153,90.1186 -190.5698,223.0552 -202.0098,286.7859 -6.9684,38.3367 38.3108,51.7798 60.2063,65.2236 20.8989,6.9713 43.7847,1.9905 57.7152,18.92 9.9514,12.4475 -3.4811,33.3586 -6.4702,48.7938 -0.4982,25.39249 -30.3461,37.83999 -27.3632,61.23959 2.9891,19.9164 19.9028,27.8827 35.328,40.3301 16.4214,12.9442 -41.7982,37.8394 -22.8917,60.7433 19.4044,22.4041 47.77,48.2947 37.8126,80.1597 -14.4288,49.2911 -42.2964,100.5735 -19.4045,138.9115 22.8917,37.8401 54.7323,60.2443 103.991,70.2002 77.1198,0 154.7438,1.5035 232.3616,1.5035 26.865,23.4005 45.7714,99.0791 60.7046,200.6459 z" /></clipPath></defs>
<g id="g1076" clip-path="url(#clipPath828)"><path id="path12083" d="m 27.769705,25.24283 1.311219,787.31861 c 72.319846,-0.74779 165.521116,-3.56968 231.352066,-3.56968 h 0.65568 c 27.22814,0.87882 46.39577,-1.30235 58.05688,-4.662 11.65971,-3.35911 14.67303,-7.17179 15.37024,-8.44953 0.69724,-1.2772 1.26834,-3.08871 -0.87419,-8.88669 -2.14252,-5.79903 -7.28171,-13.96533 -14.35016,-21.99914 -27.76953,-31.5607 -36.32101,-66.80795 -33.14415,-96.44398 3.17592,-29.63854 16.34587,-53.4345 32.63428,-68.32776 27.68619,-25.31378 60.71128,-37.39256 92.73204,-38.02639 41.16753,-0.81397 80.73825,17.29347 105.55223,50.40878 20.152,26.89699 23.5964,59.36312 18.42944,87.12212 -5.16695,27.75913 -17.68495,51.93574 -37.15094,66.7239 -9.38666,7.13157 -15.39685,22.96678 -13.69461,29.93938 0.85103,3.48644 1.90303,5.69885 7.57585,8.59552 5.67297,2.89654 16.91106,5.57112 35.18292,4.07964 l 0.87419,-0.0662 H 774.34946 V 505.67768 c -1.64275,-22.64992 1.0166,-41.17454 8.59559,-56.01538 7.77337,-15.22348 21.54859,-25.68662 35.98483,-29.21011 28.87341,-7.04818 56.56518,6.964 73.35293,29.06452 5.40264,7.11184 22.12885,17.84287 40.93987,21.3436 18.80984,3.50099 38.50975,0.95426 54.26793,-10.85385 39.19599,-29.36682 49.60699,-89.35636 6.62902,-136.36487 -6.595,-7.21309 -22.94123,-17.20109 -41.8854,-19.23072 -18.94431,-2.03029 -40.71236,2.23636 -64.24812,22.94573 -10.63335,9.35628 -22.12739,17.39326 -35.18293,22.21739 -13.0566,4.82412 -29.33942,6.08372 -43.55927,-1.67532 -14.22138,-7.75892 -23.38849,-22.38932 -28.62792,-40.57564 -5.19883,-18.04431 -7.17806,-40.73685 -6.26443,-70.36586 l -0.007,-211.71434 z" style="color:#000000;fill:#c5026a;stroke-width:3.50183" /><path id="path12081" d="M 816.28375,25.679727 V 237.29202 l -0.0662,0.36397 c -0.87883,27.22774 1.37541,46.39572 4.73478,58.05679 3.35925,11.65975 7.09927,14.67276 8.37714,15.36999 1.2772,0.6975 3.08832,1.26794 8.88682,-0.87353 5.79877,-2.14279 13.96533,-7.35484 21.99888,-14.4234 31.56096,-27.76946 66.80795,-36.3209 96.44398,-33.14377 29.6388,3.17633 53.50815,16.41836 68.40135,32.70674 57.8608,63.28168 46.4868,154.10173 -12.3836,198.21079 -26.89645,20.15163 -59.36297,23.6693 -87.1221,18.50198 -27.759,-5.16665 -51.93561,-17.7575 -66.72391,-37.22447 -7.13103,-9.38711 -23.0389,-15.39685 -30.01164,-13.69506 -3.48644,0.85102 -5.62605,1.90283 -8.52286,7.57587 -2.89654,5.67303 -5.57072,16.91137 -4.07924,35.18293 l 0.0662,0.87352 v 304.19727 h 229.16695 c 31.4762,-0.95294 61.2435,4.05436 81.6592,23.31023 10.287,9.70436 17.1422,25.67894 14.6419,41.30411 -2.4286,15.1753 -11.3967,28.4287 -24.8399,41.37425 -0.026,0.053 -0.026,0.10589 -0.066,0.14427 -34.8727,38.50617 -20.1163,109.3972 29.5747,127.1865 l 1.3117,0.4381 1.2388,0.6551 c 54.1279,28.0384 130.6394,-30.9296 113.4174,-89.96213 -1.3116,-4.21027 -6.9774,-13.69454 -14.569,-23.96551 -7.6488,-10.34932 -16.8281,-21.81993 -24.3301,-34.45591 -7.5017,-12.63532 -14.6412,-27.52963 -11.0724,-45.38018 3.569,-17.85279 19.0401,-31.68537 39.4832,-39.55322 l 1.7481,-0.65646 1.8212,-0.36397 c 95.4425,-18.392 201.0512,4.59515 288.1102,1.38361 0.1667,-261.58313 -0.1641,-523.60447 0,-785.1876 -242.4316,0.03971 -484.848,0.436764 -727.29536,0.436764 z" style="color:#000000;fill:#ff7b02;stroke-width:3.50183" /><path id="path12079" d="m 412.59948,603.36313 c -21.88401,0.44338 -44.92151,9.02328 -65.48777,27.82703 -7.21308,6.5946 -17.201,22.94017 -19.23101,41.8854 -2.02995,18.94391 2.16371,40.71236 22.87326,64.24812 9.35585,10.63335 17.39326,22.0546 22.21738,35.11291 4.82413,13.0562 6.15657,29.33969 -1.60254,43.55927 -7.75936,14.2213 -22.38861,23.38832 -40.57573,28.62777 -18.0446,5.19855 -40.73682,7.25134 -70.36583,6.33731 h -0.65555 c -64.62982,0 -159.04131,2.82441 -232.001985,3.56982 V 1726.556 H 774.34064 c -2.16633,-96.7941 15.45954,-405.6723 0.94699,-484.4916 -4.50406,-10.9155 -7.13953,-11.7129 -7.94005,-11.874 -0.85421,-0.1694 -6.80582,0.5996 -15.73444,5.9007 -8.92862,5.3011 -19.6887,13.7954 -30.88581,22.0713 -11.19746,8.2759 -22.43905,16.6807 -36.93033,21.052 h -0.14572 l -0.0728,0.066 c -95.21834,27.779 -182.69762,-82.8534 -140.08032,-170.4551 h -0.0728 c 28.38516,-79.2851 134.06066,-101.9209 195.07659,-46.4029 l 0.58275,0.5824 0.58275,0.5823 c 9.51518,10.0919 16.40433,12.8987 18.64796,13.2577 2.24391,0.3586 1.52876,0.7372 4.07928,-1.9667 5.10113,-5.4078 12.76594,-27.5187 11.9465,-52.1562 V 850.96147 H 529.07628 c -22.61554,1.63151 -41.11851,-1.02573 -55.94528,-8.59565 -15.22387,-7.77374 -25.75948,-21.54821 -29.28337,-35.98485 -7.04814,-28.87222 6.9641,-56.56505 29.06486,-73.3528 7.11187,-5.40264 17.84219,-22.20164 21.34332,-41.01002 3.50102,-18.8101 1.02772,-38.50962 -10.78074,-54.26793 -16.51885,-22.04718 -42.73987,-34.94893 -70.8771,-34.38233 z" style="color:#000000;fill:#0492d2;stroke-width:3.50183" /><path id="rect11854" d="m 1329.5544,844.46441 c -22.0035,0.16941 -43.4367,1.66129 -64.0311,5.46352 -10.9212,4.50502 -11.7864,7.1391 -11.9465,7.9397 -0.1708,0.85368 0.6723,6.80585 5.9731,15.73436 5.3011,8.92865 13.7959,19.76159 22.0718,30.95903 8.2758,11.19743 16.6805,22.43947 21.0519,36.93038 v 0.13897 c 27.7719,95.19373 -82.7904,182.69763 -170.3817,140.15033 -0.9079,-0.3243 -1.7289,-0.7478 -2.6223,-1.092 v -0.066 c -77.0753,-29.8007 -98.6467,-133.59502 -43.7729,-193.93159 l 0.5096,-0.58235 0.5823,-0.50956 c 10.0919,-9.51444 12.9715,-16.40393 13.3305,-18.64823 0.3586,-2.24338 0.7372,-1.6012 -1.9668,-4.15177 -5.4075,-5.10114 -27.5188,-12.69276 -52.1562,-11.87403 H 816.30069 v 171.03653 h -0.0662 c 0.96353,31.5038 -4.03875,61.2996 -23.31035,81.7327 -9.70357,10.2867 -25.6061,17.069 -41.23057,14.5687 -15.19165,-2.4316 -28.48811,-11.3725 -41.44769,-24.8402 -38.47814,-35.0121 -109.44978,-20.2403 -127.2601,29.5022 l -0.50996,1.3103 -0.65554,1.3116 c -28.00275,54.0578 30.85885,130.4538 89.815,113.4909 0.0212,0 0.0543,-0.066 0.0728,-0.066 h 0.14572 c 4.22916,-1.3338 13.65155,-6.9994 23.89301,-14.5687 10.34896,-7.6487 21.81992,-16.9012 34.45522,-24.4025 12.63532,-7.5017 27.52966,-14.5686 45.38026,-10.9996 17.85233,3.569 31.7581,18.9669 39.62674,39.4096 l 0.65515,1.748 0.36397,1.8212 c 17.74307,92.0771 -1.15147,404.2011 0.29117,494.5764 242.35318,0.4275 484.70658,-0.4672 727.05978,0 V 852.4601 c -70.6391,2.91798 -148.0134,-8.52233 -214.0229,-8.0129 z" style="color:#000000;fill:#6d9908;stroke-width:3.50183" /></g>
</svg>
